# xmcd
#
# Track frame offsets: 
#        150
#        16170
#        43072
#        65515
#        81536
#        97102
#        115590
#        132498
#        157370
#        173058
#
# Disc length: 2595 seconds
#
# Revision: 0
# Processed by: cddbd v1.5.2PL0 Copyright (c) Steve Scherf et al.
# Submitted via: ExactAudioCopyFreeDBPlugin 1.0
#
DISCID=8a0a210a
DTITLE=Robertas Jasinskas - Paslapčių Medus
DYEAR=2002
DGENRE=Pop
TTITLE0=Paslapčių Medus
TTITLE1=Moteris
TTITLE2=Keistuolių Rožė
TTITLE3=Mano Pavasaris
TTITLE4=Meilės Gėlė
TTITLE5=Kai Nužydi Pienės
TTITLE6=Malvina
TTITLE7=Naujųjų Naktį
TTITLE8=Paskutinė Meilė
TTITLE9=Senų Metų Maršas
EXTD=
EXTT0=
EXTT1=
EXTT2=
EXTT3=
EXTT4=
EXTT5=
EXTT6=
EXTT7=
EXTT8=
EXTT9=
PLAYORDER=
